<svg width="248" height="248" viewBox="0 0 248 248" fill="none" xmlns="http://www.w3.org/2000/svg">
<g filter="url(#filter0_d_5208_13991)">
<path fill-rule="evenodd" clip-rule="evenodd" d="M106.093 57.7085L116.359 96.0227C123.944 94.4551 131.528 95.8592 137.825 99.4927L158.003 64.544L164.215 68.1305L143.614 103.812C145.462 105.564 147.102 107.557 148.479 109.759L188.031 99.1612L189.887 106.09L151.577 116.355C151.765 116.922 151.937 117.498 152.094 118.083C153.364 122.823 153.449 127.601 152.53 132.103L186.642 151.797L183.056 158.009L150.218 139.051C146.75 146.402 140.392 152.334 132.177 155.055L141.51 189.887L134.582 191.744L125.14 156.508C121.266 156.844 117.445 156.429 113.851 155.363L95.7939 186.639L89.5821 183.052L107.216 152.51C100.435 148.592 95.148 142.089 92.961 133.927C92.8044 133.343 92.6658 132.758 92.5449 132.172L57.7086 141.507L55.8521 134.578L91.9294 124.912C92.1395 118.978 94.0826 113.307 97.3841 108.547L64.5472 89.5885L68.1337 83.3767L102.245 103.071C104.4 101.162 106.846 99.54 109.539 98.2824L99.1645 59.565L106.093 57.7085Z" fill="#FFD700"/>
</g>
<defs>
<filter id="filter0_d_5208_13991" x="23.1439" y="25.0009" width="199.452" height="199.451" filterUnits="userSpaceOnUse" color-interpolation-filters="sRGB">
<feFlood flood-opacity="0" result="BackgroundImageFix"/>
<feColorMatrix in="SourceAlpha" type="matrix" values="0 0 0 0 0 0 0 0 0 0 0 0 0 0 0 0 0 0 127 0" result="hardAlpha"/>
<feOffset/>
<feGaussianBlur stdDeviation="16.3541"/>
<feColorMatrix type="matrix" values="0 0 0 0 1 0 0 0 0 0.843137 0 0 0 0 0 0 0 0 1 0"/>
<feBlend mode="normal" in2="BackgroundImageFix" result="effect1_dropShadow_5208_13991"/>
<feBlend mode="normal" in="SourceGraphic" in2="effect1_dropShadow_5208_13991" result="shape"/>
</filter>
</defs>
</svg>
