<svg width="204" height="29" viewBox="0 0 204 29" fill="none" xmlns="http://www.w3.org/2000/svg">
<path d="M23.3111 0.658203H0V7.53022H7.52233V27.4758H15.7903V7.53022H23.3111V0.658203Z" fill="#FF2B06"/>
<path d="M47.2274 20.6015H32.8672V17.2624H47.2251V10.8756H32.8672V7.53023H47.2251V0.658203H24.5953V27.4758H47.2274V20.6015Z" fill="#FF2B06"/>
<path d="M56.8866 20.6015H60.1289C65.2825 20.6015 66.0359 16.4322 66.0359 13.9124C66.0359 12.2242 65.505 7.53023 59.5282 7.53023H56.8866V20.6015ZM48.6163 0.658203H62.1899C71.1376 0.658203 74.3 7.26669 74.3 14.0279C74.3 22.2571 69.937 27.4758 60.5761 27.4758H48.6163V0.658203Z" fill="#FF2B06"/>
<path d="M86.4928 8.69015L92.0309 0.607422H85.9696L83.6622 4.60383L81.4159 0.607422H75.3508L80.8927 8.69015L75.1431 17.1434H81.202L83.6622 12.964L86.1859 17.1434H92.2472L86.4928 8.69015Z" fill="#FF2B06"/>
<path d="M117.537 2.67254C119.384 4.45527 120.409 6.4837 120.615 8.75628H117.082C116.689 7.03479 115.906 5.67217 114.733 4.66532C113.562 3.65691 111.915 3.15465 109.792 3.1562C107.207 3.1562 105.119 4.08709 103.527 5.94423C101.936 7.80291 101.142 10.6382 101.143 14.4509C101.143 17.58 101.86 20.1146 103.297 22.0539C104.732 23.9932 106.875 24.9667 109.722 24.9775C112.345 24.9775 114.34 23.9521 115.711 21.9012C116.44 20.8246 116.984 19.4085 117.34 17.6482H120.869C120.558 20.4603 119.526 22.8173 117.776 24.7202C115.674 26.9967 112.846 28.133 109.284 28.133C106.214 28.133 103.637 27.1943 101.548 25.3132C98.8007 22.8344 97.4249 19.0008 97.4249 13.8084C97.4249 9.86778 98.4566 6.63562 100.521 4.1119C102.753 1.37115 105.831 0 109.751 0C113.094 0 115.69 0.891363 117.537 2.67254Z" fill="white"/>
<path d="M128.379 7.9668V20.8939C128.35 21.7279 128.511 22.5572 128.847 23.3207C129.415 24.4841 130.473 25.067 132.019 25.067C134.24 25.067 135.753 24.054 136.556 22.0263C136.995 20.9326 137.215 19.4359 137.213 17.5338V7.9668H140.488V27.4365H137.394L137.432 24.5648C137.034 25.2809 136.507 25.915 135.877 26.4382C134.619 27.4636 133.036 28.0031 131.414 27.9597C128.686 27.9597 126.825 27.0288 125.832 25.1717C125.293 24.1772 125.025 22.8495 125.028 21.19V7.9668H128.379Z" fill="white"/>
<path d="M145.839 7.96824H148.949V10.7315C149.734 9.70756 150.734 8.86968 151.879 8.27673C152.954 7.77059 154.132 7.51713 155.32 7.53186C158.086 7.53186 159.953 8.4953 160.925 10.4222C161.459 11.4763 161.726 12.9854 161.726 14.9472V27.4379H158.395V15.1658C158.395 13.9838 158.218 13.0265 157.868 12.2941C157.288 11.0834 156.231 10.478 154.702 10.478C154.056 10.4594 153.411 10.54 152.791 10.7129C151.86 11.0004 151.037 11.5569 150.423 12.3119C149.915 12.8824 149.551 13.566 149.359 14.3054C149.168 15.2704 149.081 16.2548 149.106 17.2392V27.4379H145.839V7.96824Z" fill="white"/>
<path d="M179.781 16.1462C179.647 14.7278 179.34 13.5931 178.861 12.7451C177.969 11.1763 176.484 10.3919 174.401 10.3919C173.695 10.3795 172.995 10.5175 172.347 10.7973C171.7 11.0794 171.12 11.4956 170.648 12.0204C169.633 13.1055 169.097 14.4829 169.04 16.1563L179.781 16.1462ZM178.613 8.49989C179.803 9.06028 180.822 9.93072 181.562 11.0197C182.232 12.0576 182.673 13.2272 182.856 14.448C183.048 15.3456 183.147 16.7741 183.147 18.7358H168.972C169.034 20.7185 169.497 22.3083 170.364 23.5042C171.228 24.7002 172.571 25.2994 174.389 25.3017C176.081 25.3017 177.434 24.7351 178.448 23.6035C179.015 22.9423 179.426 22.1618 179.651 21.3223H182.873C182.743 22.1641 182.457 22.9748 182.027 23.712C181.609 24.5088 181.067 25.2358 180.423 25.866C179.408 26.8496 178.137 27.5309 176.756 27.8301C175.887 28.0378 174.996 28.1409 174.102 28.1347C172.952 28.1533 171.809 27.9262 170.753 27.4696C169.695 27.0123 168.748 26.3372 167.97 25.4893C166.294 23.7244 165.456 21.2541 165.456 18.0793C165.456 14.9518 166.302 12.418 167.995 10.4764C169.684 8.53477 171.892 7.55892 174.615 7.54884C176.005 7.54652 177.374 7.87206 178.613 8.49989Z" fill="white"/>
<path d="M199.384 22.8493C200.197 21.1402 200.605 19.2668 200.579 17.3748C200.579 15.5595 200.292 14.0829 199.716 12.9443C198.806 11.1515 197.235 10.2555 195.003 10.2578C193.021 10.2578 191.584 11.0174 190.69 12.539C189.796 14.0605 189.346 15.899 189.34 18.0584C189.34 20.1295 189.79 21.8549 190.69 23.2345C191.59 24.6134 193.017 25.3033 194.972 25.3056C197.116 25.3095 198.585 24.4902 199.382 22.8493H199.384ZM201.414 9.90982C203.137 11.5856 204 14.0419 204 17.2841C204 20.4217 203.238 23.0136 201.717 25.0583C200.193 27.1046 197.84 28.1324 194.655 28.1363C191.993 28.1363 189.879 27.2302 188.312 25.4188C186.745 23.6066 185.965 21.1759 185.967 18.1204C185.967 14.8511 186.793 12.2467 188.444 10.309C190.095 8.3697 192.315 7.40238 195.102 7.40238C196.268 7.37757 197.429 7.5853 198.511 8.0178C199.597 8.44798 200.583 9.09287 201.414 9.90982Z" fill="white"/>
</svg>
