<svg viewBox="0 0 204 45" fill="none" xmlns="http://www.w3.org/2000/svg">
<g clip-path="url(#clip0)">
<path d="M2.74678 39.5374L0.775371 36.6772H2.65556L3.70967 38.2526L4.75619 36.6772H6.58823L4.60416 39.5119L6.82135 42.7238H4.94117L3.68687 40.8196L2.4351 42.7238H0.590393L2.74678 39.5374Z" fill="#FF2B06"/>
<path d="M14.6284 39.1397H8.76996V37.8906H14.6284V39.1397ZM14.6284 41.6379H8.76996V40.3888H14.6284V41.6379Z" fill="white"/>
<path d="M19.1186 35.7443H17.4842V34.3779H19.1313L19.1186 35.7443ZM17.4842 36.6773H19.1313V42.7136H17.4842V36.6773Z" fill="white"/>
<path d="M20.1879 36.677H21.7539V37.5182H21.7919C21.9868 37.207 22.2579 36.9512 22.579 36.7754C22.9002 36.5995 23.2608 36.5095 23.6265 36.5138C25.3774 36.5138 25.8209 37.5054 25.8209 39.0018V42.7133H24.1662V39.3051C24.1662 38.311 23.8773 37.8215 23.1121 37.8215C22.2176 37.8215 21.8451 38.3314 21.8451 39.5499V42.7133H20.1981L20.1879 36.677Z" fill="white"/>
<path d="M31.1168 41.9438H31.094C30.7114 42.5964 30.0373 42.8768 29.2721 42.8768C27.4629 42.8768 26.5811 41.3116 26.5811 39.6419C26.5811 38.0207 27.473 36.5141 29.2366 36.5141C29.5854 36.5024 29.9315 36.5786 30.2435 36.7358C30.5554 36.8929 30.8234 37.1261 31.0231 37.414V34.3779H32.6879V42.7136H31.1168V41.9438ZM29.6775 37.7632C28.5981 37.7632 28.2281 38.6962 28.2281 39.6903C28.2281 40.6361 28.6564 41.6277 29.6775 41.6277C30.7697 41.6277 31.094 40.6692 31.094 39.6776C31.094 38.686 30.7469 37.7632 29.6775 37.7632Z" fill="white"/>
<path d="M35.0495 40.0979C35.0976 41.1482 35.607 41.6274 36.5242 41.6274C37.1856 41.6274 37.7177 41.2196 37.8242 40.8448H39.2761C38.8124 42.2698 37.8267 42.8841 36.4685 42.8841C34.5756 42.8841 33.405 41.5764 33.405 39.7079C33.405 37.898 34.6466 36.5215 36.4685 36.5215C38.5109 36.5215 39.5092 38.2498 39.38 40.1056L35.0495 40.0979ZM37.7304 39.0477C37.5809 38.2065 37.2236 37.7731 36.4204 37.7731C36.2465 37.7635 36.0725 37.7891 35.9087 37.8484C35.7449 37.9078 35.5946 37.9996 35.4667 38.1185C35.3389 38.2374 35.2361 38.3809 35.1644 38.5405C35.0927 38.7001 35.0536 38.8726 35.0495 39.0477H37.7304Z" fill="white"/>
<path d="M40.1199 36.677H41.6859V37.4417H41.7112C41.8991 37.1429 42.1621 36.8993 42.4735 36.7355C42.785 36.5717 43.1339 36.4934 43.485 36.5087C45.3652 36.5087 46.2115 38.0382 46.2115 39.7538C46.2115 41.3648 45.3297 42.8714 43.5762 42.8714C43.2253 42.8806 42.8777 42.8024 42.5642 42.6436C42.2507 42.4848 41.9812 42.2504 41.7796 41.9613H41.7543V44.8316H40.1072L40.1199 36.677ZM44.5771 39.713C44.5771 38.7545 44.1945 37.7629 43.1378 37.7629C42.0812 37.7629 41.7112 38.7316 41.7112 39.713C41.7112 40.6944 42.0812 41.6274 43.148 41.6274C44.2148 41.6274 44.5771 40.6944 44.5771 39.713Z" fill="white"/>
<path d="M48.3349 40.0979C48.3805 41.1482 48.8924 41.6274 49.8097 41.6274C50.471 41.6274 51.0032 41.2196 51.1096 40.8448H52.559C52.0953 42.2698 51.1096 42.8841 49.7514 42.8841C47.8585 42.8841 46.6879 41.5764 46.6879 39.7079C46.6879 37.898 47.9295 36.5215 49.7514 36.5215C51.7938 36.5215 52.7795 38.2498 52.6629 40.1056L48.3349 40.0979ZM51.0158 39.0477C50.8638 38.2065 50.5091 37.7731 49.7058 37.7731C49.532 37.7635 49.358 37.7891 49.1942 37.8484C49.0303 37.9078 48.88 37.9996 48.7522 38.1185C48.6243 38.2374 48.5215 38.3809 48.4498 38.5405C48.3782 38.7001 48.3391 38.8726 48.3349 39.0477H51.0158Z" fill="white"/>
<path d="M53.4053 36.677H54.9713V37.5182H55.0068C55.2017 37.207 55.4727 36.9512 55.7939 36.7754C56.1151 36.5995 56.4757 36.5095 56.8414 36.5138C58.5923 36.5138 59.0332 37.5054 59.0332 39.0018V42.7133H57.3862V39.3051C57.3862 38.311 57.0948 37.8215 56.3295 37.8215C55.4376 37.8215 55.0625 38.3314 55.0625 39.5499V42.7133H53.4155L53.4053 36.677Z" fill="white"/>
<path d="M64.3367 41.9438H64.3139C63.9288 42.5964 63.2573 42.8768 62.492 42.8768C60.6803 42.8768 59.7985 41.3116 59.7985 39.6419C59.7985 38.0207 60.6929 36.5141 62.4566 36.5141C62.8053 36.5026 63.1513 36.5789 63.4632 36.7361C63.7752 36.8932 64.0432 37.1262 64.243 37.414H64.2557V34.3779H65.9027V42.7136H64.3367V41.9438ZM62.8975 37.7632C61.818 37.7632 61.4455 38.6962 61.4455 39.6903C61.4455 40.6361 61.8763 41.6277 62.8975 41.6277C63.9871 41.6277 64.3139 40.6692 64.3139 39.6776C64.3139 38.686 63.9643 37.7632 62.8975 37.7632Z" fill="white"/>
<path d="M68.2694 40.0979C68.315 41.1482 68.8269 41.6274 69.7417 41.6274C70.403 41.6274 70.9377 41.2196 71.0416 40.8448H72.4935C72.0298 42.2698 71.0416 42.8841 69.6859 42.8841C67.7931 42.8841 66.6224 41.5764 66.6224 39.7079C66.6224 37.898 67.864 36.5215 69.6859 36.5215C71.7257 36.5215 72.714 38.2498 72.5974 40.1056L68.2694 40.0979ZM70.9503 39.0477C70.7983 38.2065 70.4436 37.7731 69.6378 37.7731C69.464 37.7635 69.2902 37.7891 69.1265 37.8485C68.9628 37.9078 68.8127 37.9997 68.6851 38.1186C68.5574 38.2375 68.4548 38.3811 68.3834 38.5407C68.312 38.7003 68.2732 38.8727 68.2694 39.0477H70.9503Z" fill="white"/>
<path d="M73.3398 36.6769H74.9058V37.5182H74.9413C75.136 37.2073 75.4066 36.9518 75.7273 36.776C76.048 36.6002 76.4081 36.5099 76.7733 36.5138C78.5268 36.5138 78.9677 37.5054 78.9677 39.0018V42.7133H77.3207V39.3051C77.3207 38.3109 77.0293 37.8215 76.264 37.8215C75.3695 37.8215 74.997 38.3313 74.997 39.5498V42.7133H73.35L73.3398 36.6769Z" fill="white"/>
<path d="M82.0769 36.677H83.283V37.7858H82.0769V40.7862C82.0769 41.3444 82.2162 41.4846 82.7737 41.4846C82.9437 41.4868 83.1136 41.4714 83.2805 41.4388V42.7337C82.9616 42.7788 82.6396 42.7984 82.3176 42.7924C81.304 42.7924 80.4273 42.5604 80.4273 41.3572V37.7884H79.4289V36.6795H80.4273V34.8696H82.0743L82.0769 36.677Z" fill="white"/>
<path d="M83.8861 34.3779H85.5332V42.7136H83.8861V34.3779Z" fill="white"/>
<path d="M89.5596 43.4707C89.1998 44.4419 88.6322 44.837 87.4945 44.837C87.1558 44.8355 86.8175 44.8159 86.4809 44.7784V43.4121C86.8004 43.451 87.122 43.4706 87.4438 43.4707C88.0114 43.4121 88.204 42.8181 88.0114 42.3389L85.9006 36.6772H87.6744L89.0326 40.8094H89.0554L90.3654 36.6772H92.0708L89.5596 43.4707Z" fill="white"/>
<path d="M98.2967 36.5142C100.19 36.5142 101.408 37.776 101.408 39.7006C101.408 41.6252 100.19 42.8768 98.2967 42.8768C96.4038 42.8768 95.2002 41.615 95.2002 39.7006C95.2002 37.7862 96.4165 36.5142 98.2967 36.5142ZM98.2967 41.6277C99.4243 41.6277 99.7588 40.6591 99.7588 39.7006C99.7588 38.7421 99.4243 37.7632 98.2967 37.7632C97.1691 37.7632 96.8473 38.7319 96.8473 39.7006C96.8473 40.6693 97.1843 41.6277 98.2967 41.6277Z" fill="white"/>
<path d="M102.009 36.6769H103.577V37.7985H103.6C103.764 37.4238 104.031 37.1045 104.371 36.8785C104.71 36.6525 105.107 36.5294 105.513 36.5239C105.636 36.5249 105.757 36.5447 105.873 36.5826V38.112C105.679 38.0746 105.481 38.0559 105.283 38.056C104.077 38.056 103.658 38.9303 103.658 39.9933V42.7132H102.009V36.6769Z" fill="white"/>
<path d="M112.058 42.3288C112.058 43.3204 111.711 45.0003 108.949 45.0003C107.766 45.0003 106.385 44.442 106.304 43.0629H107.946C108.098 43.6823 108.597 43.8914 109.177 43.8914C110.095 43.8914 110.51 43.2617 110.5 42.3976V41.6048H110.48C110.288 41.9053 110.02 42.1496 109.704 42.3133C109.389 42.4771 109.036 42.5545 108.681 42.5378C106.882 42.5378 106.116 41.1612 106.116 39.5018C106.116 37.9391 107.008 36.5142 108.693 36.5142C109.481 36.5142 110.085 36.7691 110.467 37.4828H110.49V36.6773H112.056L112.058 42.3288ZM110.493 39.619C110.493 38.6401 110.155 37.7632 109.089 37.7632C108.159 37.7632 107.753 38.5815 107.753 39.4788C107.753 40.3761 108.078 41.2887 109.089 41.2887C110.029 41.2963 110.493 40.4832 110.493 39.619Z" fill="white"/>
<path d="M112.847 38.5331C112.94 36.9807 114.321 36.5142 115.667 36.5142C116.863 36.5142 118.302 36.7691 118.302 38.2297V41.3703C118.302 41.9183 118.358 42.469 118.51 42.7137H116.84C116.777 42.5248 116.738 42.3287 116.723 42.1299C116.453 42.3852 116.134 42.5829 115.786 42.7113C115.437 42.8396 115.067 42.8959 114.696 42.8768C113.559 42.8768 112.654 42.3033 112.654 41.0669C112.654 39.7006 113.668 39.3743 114.696 39.2341C115.725 39.0939 116.645 39.1168 116.645 38.4413C116.645 37.7276 116.158 37.623 115.578 37.623C114.952 37.623 114.544 37.878 114.489 38.5331H112.847ZM116.647 39.7592C116.369 40.0141 115.788 40.0141 115.279 40.111C114.77 40.2079 114.304 40.3889 114.304 40.9981C114.304 41.6073 114.78 41.7628 115.317 41.7628C116.604 41.7628 116.65 40.7432 116.65 40.3736L116.647 39.7592Z" fill="white"/>
<path d="M119.349 36.677H120.917V37.5182H120.95C121.145 37.207 121.416 36.9512 121.737 36.7754C122.058 36.5995 122.419 36.5095 122.785 36.5138C124.536 36.5138 124.977 37.5054 124.977 39.0018V42.7133H123.329V39.3051C123.329 38.311 123.041 37.8215 122.275 37.8215C121.381 37.8215 121.008 38.3314 121.008 39.5499V42.7133H119.349V36.677Z" fill="white"/>
<path d="M127.457 35.7443H125.81V34.3779H127.457V35.7443ZM125.81 36.6773H127.457V42.7136H125.81V36.6773Z" fill="white"/>
<path d="M128.152 41.4645L131.273 37.9263H128.385V36.6772H133.453V37.9263L130.321 41.4645H133.663V42.7136H128.152V41.4645Z" fill="white"/>
<path d="M135.67 40.0979C135.718 41.1482 136.227 41.6274 137.145 41.6274C137.806 41.6274 138.338 41.2196 138.444 40.8448H139.894C139.43 42.2698 138.444 42.8841 137.086 42.8841C135.193 42.8841 134.023 41.5764 134.023 39.7079C134.023 37.898 135.264 36.5215 137.086 36.5215C139.129 36.5215 140.127 38.2498 139.998 40.1056L135.67 40.0979ZM138.353 39.0477C138.204 38.2065 137.846 37.7731 137.043 37.7731C136.869 37.7635 136.695 37.7891 136.532 37.8484C136.368 37.9078 136.217 37.9996 136.09 38.1185C135.962 38.2374 135.859 38.3809 135.787 38.5405C135.716 38.7001 135.676 38.8726 135.672 39.0477H138.353Z" fill="white"/>
<path d="M145.023 41.9438H145C144.617 42.5964 143.943 42.8768 143.178 42.8768C141.366 42.8768 140.484 41.3116 140.484 39.6419C140.484 38.0207 141.379 36.5141 143.142 36.5141C143.491 36.5026 143.837 36.5789 144.149 36.7361C144.461 36.8932 144.729 37.1262 144.929 37.414V34.3779H146.576V42.7136H145.01L145.023 41.9438ZM143.583 37.7632C142.504 37.7632 142.134 38.6962 142.134 39.6903C142.134 40.6361 142.562 41.6277 143.583 41.6277C144.675 41.6277 145 40.6692 145 39.6776C145 38.686 144.65 37.7632 143.583 37.7632Z" fill="white"/>
<path d="M152.599 35.9201H150.116V34.3906H156.904V35.9201H154.421V42.7136H152.599V35.9201Z" fill="white"/>
<path d="M157.624 34.3779H163.819V35.9074H159.446V37.6918H163.459V39.1168H159.446V41.1561H163.913V42.6983H157.624V34.3779Z" fill="white"/>
<path d="M164.678 34.3779H168.254C170.4 34.3779 172.014 35.7315 172.014 38.4999C172.014 40.9165 170.783 42.7136 168.254 42.7136H164.681L164.678 34.3779ZM166.5 41.1714H168.125C169.179 41.1714 170.19 40.5188 170.19 38.6732C170.19 36.9934 169.609 35.9202 167.8 35.9202H166.5V41.1714Z" fill="white"/>
<path d="M177.221 40.0979C177.267 41.1482 177.779 41.6274 178.694 41.6274C179.355 41.6274 179.89 41.2196 179.993 40.8448H181.445C180.979 42.2698 179.993 42.8841 178.635 42.8841C176.745 42.8841 175.572 41.5764 175.572 39.7079C175.572 37.898 176.813 36.5215 178.635 36.5215C180.678 36.5215 181.676 38.2498 181.549 40.1056L177.221 40.0979ZM179.91 39.0477C179.76 38.2065 179.403 37.7731 178.6 37.7731C178.426 37.7635 178.252 37.7891 178.089 37.8485C177.925 37.9078 177.775 37.9997 177.647 38.1186C177.519 38.2375 177.417 38.3811 177.345 38.5407C177.274 38.7003 177.235 38.8727 177.231 39.0477H179.91Z" fill="white"/>
<path d="M185.378 42.7136H183.543L181.491 36.6772H183.219L184.486 40.7992H184.509L185.776 36.6772H187.413L185.378 42.7136Z" fill="white"/>
<path d="M188.986 40.0979C189.032 41.1482 189.544 41.6274 190.459 41.6274C191.12 41.6274 191.655 41.2196 191.759 40.8448H193.21C192.744 42.2698 191.759 42.8841 190.4 42.8841C188.51 42.8841 187.339 41.5764 187.339 39.7079C187.339 37.898 188.581 36.5215 190.4 36.5215C192.443 36.5215 193.441 38.2498 193.314 40.1056L188.986 40.0979ZM191.667 39.0477C191.515 38.2065 191.161 37.7731 190.355 37.7731C190.181 37.7635 190.007 37.7891 189.843 37.8485C189.68 37.9078 189.53 37.9997 189.402 38.1186C189.274 38.2375 189.172 38.3811 189.1 38.5407C189.029 38.7003 188.99 38.8727 188.986 39.0477H191.667Z" fill="white"/>
<path d="M194.057 36.6769H195.62V37.5182H195.656C195.85 37.2073 196.121 36.9518 196.442 36.776C196.762 36.6002 197.123 36.5099 197.488 36.5138C199.241 36.5138 199.682 37.5054 199.682 39.0018V42.7133H198.035V39.3051C198.035 38.3109 197.744 37.8215 196.978 37.8215C196.084 37.8215 195.711 38.3313 195.711 39.5498V42.7133H194.064L194.057 36.6769Z" fill="white"/>
<path d="M202.794 36.677H204V37.7858H202.794V40.7862C202.794 41.3444 202.933 41.4846 203.491 41.4846C203.661 41.4868 203.831 41.4714 203.997 41.4388V42.7337C203.679 42.7788 203.357 42.7984 203.035 42.7924C202.021 42.7924 201.144 42.5604 201.144 41.3572V37.7884H200.146V36.6795H201.144V34.8696H202.791L202.794 36.677Z" fill="white"/>
<path d="M7.51314 7.57587H0V0.662598H23.2819V7.57587H15.7713V27.6351H7.51314V7.57587Z" fill="#FF2B06"/>
<path d="M24.564 0.662598H47.1668V7.57587H32.8272V10.9382H47.1668V17.362H32.8272V20.7218H47.1693V27.6351H24.564V0.662598Z" fill="#FF2B06"/>
<path d="M48.5554 0.662598H62.1119C71.0492 0.662598 74.2064 7.31076 74.2064 14.1093C74.2064 22.3864 69.8506 27.6351 60.5004 27.6351H48.5554V0.662598ZM56.816 20.7218H60.0544C65.2008 20.7218 65.9534 16.5285 65.9534 13.9946C65.9534 12.2969 65.4238 7.57587 59.4538 7.57587H56.816V20.7218Z" fill="#FF2B06"/>
<path d="M86.078 17.2424L83.5567 13.0389L81.0988 17.2424H75.0477L80.7922 8.74103L75.258 0.611816H81.3142L83.5567 4.62926L85.8626 0.611816H91.9162L86.3846 8.74103L92.1316 17.2424H86.078Z" fill="#FF2B06"/>
<path d="M117.39 2.6868C119.235 4.47969 120.259 6.51901 120.464 8.80474H116.936C116.543 7.07472 115.761 5.70328 114.59 4.69042C113.419 3.67756 111.774 3.17198 109.654 3.17368C107.073 3.17368 104.987 4.10837 103.397 5.97774C101.808 7.84711 101.014 10.6987 101.016 14.5327C101.016 17.68 101.733 20.2291 103.167 22.1801C104.601 24.131 106.741 25.1107 109.585 25.1192C112.204 25.1192 114.197 24.0885 115.565 22.0271C116.294 20.9446 116.836 19.5188 117.192 17.7497H120.717C120.406 20.5775 119.377 22.9482 117.628 24.8618C115.53 27.1509 112.703 28.2955 109.147 28.2955C106.081 28.2955 103.506 27.3497 101.421 25.4583C98.6759 22.9652 97.3033 19.1084 97.3033 13.8877C97.3033 9.92466 98.3338 6.67365 100.395 4.13471C102.625 1.37824 105.697 0 109.613 0C112.953 0 115.545 0.895598 117.39 2.6868Z" fill="white"/>
<path d="M128.217 8.00928V21.0099C128.189 21.8488 128.349 22.6833 128.684 23.452C129.251 24.6229 130.308 25.2083 131.854 25.2083C134.072 25.2083 135.582 24.1887 136.384 22.1494C136.824 21.0498 137.042 19.5441 137.041 17.6323V8.00928H140.312V27.5918H137.22L137.259 24.7036C136.861 25.4229 136.334 26.0617 135.705 26.5874C134.45 27.6188 132.868 28.1617 131.248 28.1169C128.523 28.1169 126.665 27.1822 125.673 25.3129C125.136 24.3136 124.868 22.9787 124.87 21.3082V8.00928H128.217Z" fill="white"/>
<path d="M145.656 8.00947H148.763V10.788C149.546 9.75889 150.545 8.91632 151.689 8.32046C152.763 7.81133 153.938 7.55503 155.125 7.57102C157.887 7.57102 159.753 8.53969 160.723 10.477C161.257 11.5375 161.524 13.0551 161.524 15.0298V27.592H158.196V15.249C158.196 14.0594 158.021 13.0967 157.669 12.3609C157.09 11.1424 156.036 10.5331 154.507 10.5331C153.863 10.5159 153.22 10.5958 152.599 10.7702C151.67 11.0599 150.848 11.6196 150.235 12.3787C149.728 12.9525 149.364 13.6393 149.173 14.3823C148.98 15.3538 148.895 16.3439 148.92 17.3342V27.592H145.656V8.00947Z" fill="white"/>
<path d="M178.389 8.54725C179.579 9.11165 180.595 9.98669 181.334 11.0811C182.004 12.125 182.445 13.3009 182.626 14.5301C182.819 15.4325 182.916 16.8702 182.918 18.8432H168.76C168.821 20.8367 169.284 22.435 170.149 23.6382C171.014 24.8414 172.354 25.4438 174.17 25.4455C175.86 25.4455 177.211 24.8762 178.225 23.7376C178.791 23.0731 179.201 22.289 179.426 21.4434H182.644C182.514 22.291 182.227 23.1065 181.798 23.8472C181.38 24.6497 180.84 25.3809 180.196 26.014C179.184 27.0043 177.915 27.6888 176.535 27.9896C175.667 28.1984 174.777 28.3011 173.884 28.2955C172.734 28.3133 171.594 28.0852 170.538 27.6264C169.482 27.1677 168.535 26.4886 167.76 25.6341C166.085 23.8599 165.248 21.3762 165.248 18.183C165.248 15.0374 166.093 12.4882 167.782 10.5356C169.472 8.58294 171.676 7.60152 174.396 7.59132C175.783 7.58891 177.152 7.91646 178.389 8.54725ZM179.555 16.238C179.422 14.8105 179.115 13.6702 178.635 12.8171C177.747 11.24 176.263 10.4515 174.183 10.4515C173.478 10.4379 172.778 10.5771 172.131 10.8594C171.484 11.1418 170.905 11.5608 170.433 12.088C169.419 13.179 168.885 14.5658 168.829 16.2482L179.555 16.238Z" fill="white"/>
<path d="M201.165 9.96454C202.886 11.6487 203.747 14.1205 203.747 17.38C203.747 20.5358 202.986 23.1428 201.466 25.2008C199.946 27.2588 197.595 28.2903 194.414 28.2954C191.755 28.2954 189.644 27.3845 188.079 25.5627C186.515 23.7409 185.735 21.2938 185.738 18.2212C185.738 14.9328 186.562 12.314 188.211 10.3648C189.86 8.41551 192.076 7.44089 194.86 7.44089C196.025 7.41634 197.184 7.62702 198.266 8.06048C199.349 8.49394 200.335 9.14138 201.165 9.96454ZM199.137 22.9779C199.949 21.2585 200.357 19.3748 200.331 17.4718C200.331 15.6466 200.044 14.1613 199.469 13.0159C198.56 11.2128 196.991 10.3121 194.761 10.3138C192.781 10.3138 191.346 11.0785 190.454 12.608C189.562 14.1375 189.112 15.9882 189.106 18.16C189.106 20.2435 189.555 21.9786 190.454 23.3654C191.352 24.7521 192.778 25.4463 194.731 25.448C196.871 25.4514 198.339 24.6281 199.135 22.9779H199.137Z" fill="white"/>
</g>
<defs>
<clipPath id="clip0">
<rect width="204" height="45" fill="white"/>
</clipPath>
</defs>
</svg>
